<mxfile host="app.diagrams.net" modified="2023-06-21T08:40:58.310Z" agent="Mozilla/5.0 (Windows NT 10.0; WOW64) AppleWebKit/537.36 (KHTML, like Gecko) Chrome/105.0.0.0 Safari/537.36" version="21.3.2" etag="3GC3x7W_pOD7DnYrBqmd" type="github">
  <diagram name="第 1 页" id="8dk6J9ho3jZEB8hcty7N">
    <mxGraphModel>
      <root>
        <mxCell id="0" />
        <mxCell id="1" parent="0" />
      </root>
    </mxGraphModel>
  </diagram>
</mxfile>
